<mxfile host="drawio-plugin" modified="2022-12-15T16:17:47.440Z" agent="5.0 (Macintosh; Intel Mac OS X 10_15_7) AppleWebKit/537.36 (KHTML, like Gecko) Chrome/97.0.4692.45 Safari/537.36" version="20.5.3" etag="794qvM48Wblu6XwKSMVK" type="embed"><diagram id="FWjMxUcO8xdOPy5QttPL" name="Page-1"><mxGraphModel dx="311" dy="348" grid="1" gridSize="10" guides="1" tooltips="1" connect="1" arrows="1" fold="1" page="1" pageScale="1" pageWidth="850" pageHeight="1100" math="0" shadow="0"><root><mxCell id="0"/><mxCell id="1" parent="0"/></root></mxGraphModel></diagram></mxfile>